<?xml version="1.0" encoding="UTF-8"?>
<!DOCTYPE svg PUBLIC "-//W3C//DTD SVG 1.1//EN" "http://www.w3.org/Graphics/SVG/1.1/DTD/svg11.dtd">
<!-- Creator: CorelDRAW X7 -->
<svg xmlns="http://www.w3.org/2000/svg" xml:space="preserve" width="306.408mm" height="70.6306mm" version="1.1" style="shape-rendering:geometricPrecision; text-rendering:geometricPrecision; image-rendering:optimizeQuality; fill-rule:evenodd; clip-rule:evenodd"
viewBox="0 0 30641 7063"
 xmlns:xlink="http://www.w3.org/1999/xlink">
 <defs>
  <style type="text/css">
   <![CDATA[
    .fil0 {fill:#FEFEFE;fill-rule:nonzero}
   ]]>
  </style>
 </defs>
 <g id="Camada_x0020_1">
  <metadata id="CorelCorpID_0Corel-Layer"/>
  <g id="_1584815162752">
   <polygon class="fil0" points="5650,7063 0,7063 0,0 5509,0 5509,1675 1968,1675 1968,2684 5307,2684 5307,4308 1968,4308 1968,5378 5650,5378 "/>
   <path class="fil0" d="M8172 3471l1433 0c555,0 838,-404 838,-868 0,-464 -293,-888 -838,-888l-1433 0 0 1756zm0 1685l0 1907 -1997 0 0 -7063 3430 0c1897,0 2836,1191 2836,2573 0,1443 -949,2563 -2836,2583l-1433 0z"/>
   <path class="fil0" d="M14700 5378l1050 0c1271,0 1715,-949 1715,-1917 0,-969 -494,-1796 -1715,-1796l-1050 0 0 3713zm1050 -5378c2492,0 3693,1534 3693,3481 0,1947 -1161,3582 -3693,3582l-3027 0 0 -7063 3027 0z"/>
   <path class="fil0" d="M23563 6777l-1774 0 -2674 -6460 1093 0c554,0 1050,342 1247,859l408 1070 471 1388c110,323 567,324 678,1l477 -1389 735 -1929 2013 0 -2674 6460z"/>
   <path class="fil0" d="M27847 3312l-1341 0 0 -1543 1323 0c478,0 708,395 708,799 0,386 -212,744 -690,744zm1121 1158c1085,-478 1360,-1149 1360,-1939 0,-1158 -854,-2214 -2499,-2214l-1436 0 -1707 4124 0 2308 741 0c596,0 1079,-483 1079,-1079l0 -1007 634 0 1074 1495c266,371 694,591 1151,591l1276 0 0 -110 -1673 -2169z"/>
  </g>
 </g>
</svg>
